<?xml version="1.0" encoding="UTF-8" standalone="no"?>
<!-- Created with Inkscape (http://www.inkscape.org/) -->

<svg
   xmlns:svg="http://www.w3.org/2000/svg"
   xmlns="http://www.w3.org/2000/svg"
   xmlns:xlink="http://www.w3.org/1999/xlink"
   version="1.1"
   width="1533"
   height="1824">
   <g id="contour" transform="translate(-31.358039313307472,10.292372992706078) scale(0.3708737334602818)">
  <path
     style="fill:none;stroke:#000000;stroke-width:1px;stroke-linecap:butt;stroke-linejoin:miter;stroke-opacity:1"
     d="m 566.32062,267.13064 h 29.3749 l 66.26429,-66.2643 -15.02901,-15.02901 z"/>
  <path
     style="fill:none;stroke:#000000;stroke-width:1px;stroke-linecap:butt;stroke-linejoin:miter;stroke-opacity:1"
     d="m 676.98883,170.12518 11.9549,11.95489 16.73685,-16.73685 h 15.02902 l 41.67136,-41.67136 h 17.76156 l 24.93451,-24.934508 h -56.35881 z"/>
  <path
     style="fill:none;stroke:#000000;stroke-width:1px;stroke-linecap:butt;stroke-linejoin:miter;stroke-opacity:1"
     d="m 834.11035,90.198139 v 19.127841 h 34.15685 l 11.61333,-11.613333 h 56.70038 L 961.85698,72.436575 H 852.55505 Z"/>
  <path
     style="fill:none;stroke:#000000;stroke-width:1px;stroke-linecap:butt;stroke-linejoin:miter;stroke-opacity:1"
     d="m 1027.4381,57.40756 20.8357,-20.83568 h 59.0914 l -20.3234,20.323327 z"/>
  <path
     style="fill:none;stroke:#000000;stroke-width:1px;stroke-linecap:butt;stroke-linejoin:miter;stroke-opacity:1"
     d="m 523.28299,332.02866 v 86.07527 h 46.45332 v -8.88078 l 30.05803,-30.05803 V 315.63337 L 569.05317,286.8244 Z"/>
  <path
     style="fill:none;stroke:#000000;stroke-width:1px;stroke-linecap:butt;stroke-linejoin:miter;stroke-opacity:1"
     d="m 518.50103,436.43142 0,108.05286 -23.22666,23.22666 V 718.0011 l -38.25568,38.25567 v 57.72508 l -31.93665,31.93666 V 948.21829 L 292.98041,1080.3199 v 98.1156 l 61.8666,61.8666 h 55.03523 l 36.18491,36.1849 h 118.8872 v 11.592 h -82.65958 v 23.2266 l -21.51882,21.5189 H 366.8446 l -40.30508,40.305 26.47156,26.4716 h 72.24174 l 16.13911,16.1391 v 13.065 h -95.72458 l -37.40175,-37.4017 h -78.38998 l -21.60421,21.6042 -37.65793,-37.658 h -35.01077 l -35.950091,35.9501 53.711651,53.7117 h 62.84861 l 14.85823,14.8582 h 62.67783 v -35.0108 h 32.44901 l 16.56607,16.5661 h 79.07312 v 16.9076 h 90.51566 v -21.8603 l -7.51451,-7.5145 v -2.7326 l 21.00646,-21.0065 h 33.98607 v 25.1053 h 49.18587 l 48.67352,-48.6735 h 26.47156 v 17.5908 h -19.46941 v 29.3749 h 66.60586 l 39.62195,-39.622 v -13.3211 h 28.69176 v 50.5521 l 60.11606,60.1161 h 83.68429 l 24.25137,-24.2514 h 3.41568 l 56.87117,56.8712 h 46.2825 v 89.3201 l -37.0602,37.0602 v 125.5265 h 147.0453 v -17.42 l 26.13,-26.13 v -95.4684 h -35.0108 v -28.3502 h -52.9431 l 92.3943,-92.3943 v -33.3029 h -26.4716 v -40.6467 l 42.6961,-42.6961 v -109.3019 l -117.158,-117.158 v -63.8733 h 57.0419 v -38.5973 h 48.1612 l 28.3502,28.3502 h 13.6627 v -33.8153 h 41.3298 l 41.159,-41.159 h 57.2127 v -68.9386 l -38.8481,-38.84814 v -36.50779 h 29.262 l 49.5128,-49.51271 v -127.2839 l -56.1547,-56.15466 h -71.6123 v -85.37924 l 20.7712,-20.77119 h 87.4322 V 450.68644 l 28.983,-28.98305 v -140.5678 l -13.2839,-13.2839 V 156.99152 h -43.233 V 116.8983 h -86.4661 V 54.101691 h -79.7034 l -21.9788,21.978814 h -63.5212 l -41.6631,41.663135 H 963.68644 l -50.78072,50.78072 h -34.71928 l -71.03866,71.03867 v 65.7251 l -21.7222,21.7222 24.40917,24.40916 v 101.6822 l 26.93008,26.93009 h 105.66738 l -25.42056,25.42055 v 87.25106 l 27.44333,27.44332 h 66.08742 v 19.89566 l 10.3856,10.38559 v 65.45339 l -87.553,87.55297 V 826.5 l -37.49682,37.49682 H 859.34746 L 838.18379,842.83315 H 799.93221 L 761.81647,804.71742 H 709.11865 L 748.70617,765.1299 V 722.64407 L 703.31071,677.24861 V 627.9661 h 64.25709 l 24.87712,-24.87712 V 541.98305 H 717.81356 V 487.3983 l -44.44068,-44.44068 h -41.05932 l -28.5,28.5 -35.26271,-35.26271 z"/>
  <path
     style="fill:none;stroke:#000000;stroke-width:1px;stroke-linecap:butt;stroke-linejoin:miter;stroke-opacity:1"
     d="m 171.4674,1362.1993 35.8647,35.8647 19.4694,-19.4694 h 47.8196 v -15.7121 l -19.81098,-19.811 h -65.58115 z"/>
  <path
     style="fill:none;stroke:#000000;stroke-width:1px;stroke-linecap:butt;stroke-linejoin:miter;stroke-opacity:1"
     d="m 249.34503,1250.1649 16.39529,16.3953 26.64234,-26.6424 57.04195,57.042 h 54.99253 l 16.22451,16.2245 h 24.76371 l 7.94147,-7.9415 -54.05322,-54.0532 H 348.3999 l -32.96136,-32.9614 h -32.6198 z"/>
  <path
     style="fill:none;stroke:#000000;stroke-width:1px;stroke-linecap:butt;stroke-linejoin:miter;stroke-opacity:1"
     d="m 178.98191,1309.5978 19.46941,19.4694 30.74116,-30.7412 43.37921,43.3792 h 49.18587 l 16.73685,-16.7368 -47.47802,-47.478 H 208.3568 Z"/>
  <path
     style="fill:none;stroke:#000000;stroke-width:1px;stroke-linecap:butt;stroke-linejoin:miter;stroke-opacity:1"
     d="m 115.45016,1485.8472 h 76.51135 l 19.46941,19.4694 h 83.68429 l 17.24921,-17.2492 v -12.4673 h 23.73901 l 21.51882,21.5188 h 37.91411 l 15.1998,-15.1998 h 10.75941 v 23.739 l -81.63488,81.6349 h -93.93135 v -34.4984 h -93.58978 v 25.2761 H 118.18271 L 90.174092,1550.062 v -36.8894 z"/>
  <path
     style="fill:none;stroke:#000000;stroke-width:1px;stroke-linecap:butt;stroke-linejoin:miter;stroke-opacity:1"
     d="M 789.70644,332.02866 675.62255,446.11255"/>
  <path
     style="fill:none;stroke:#000000;stroke-width:1px;stroke-linecap:butt;stroke-linejoin:miter;stroke-opacity:1"
     d="m 791.75585,579.32427 h 21.86039 l 61.48234,61.48234 v 30.05803"/>
  <path
     style="fill:none;stroke:#000000;stroke-width:1px;stroke-linecap:butt;stroke-linejoin:miter;stroke-opacity:1"
     d="m 760.33155,785.63167 151.998,-151.998 h 81.63487 l 21.34808,21.34803 v 54.82175 l -90.6011,90.60106 v 18.70087 L 893.41519,850.4016 H 860.06956 L 835.1991,825.53114 h -33.19619 z"/>
 </g>
</svg>
